<?xml version="1.0" encoding="UTF-8"?>
<svg width="142.678326px" height="127.474103px" viewBox="0 0 142.678326 127.474103" version="1.1" xmlns="http://www.w3.org/2000/svg" xmlns:xlink="http://www.w3.org/1999/xlink">
    <title>SVG Icon</title>
    <defs>
        <linearGradient x1="8.36185992%" y1="18.6228106%" x2="106.53147%" y2="105.147975%" id="linearGradient-1">
            <stop stop-color="#FFFBEF" offset="0%"></stop>
            <stop stop-color="#FDF5DA" offset="100%"></stop>
        </linearGradient>
        <path d="M106.65962,4.84677338 C149.760309,25.3008076 149.870451,116.968493 129.506475,125.639597 C106.65962,135.367927 13.2493774,104.943173 1.05878934,68.9013267 C-9.66226257,33.072168 63.5589305,-15.6072608 106.65962,4.84677338 Z" id="path-2"></path>
        <linearGradient x1="50%" y1="0%" x2="50%" y2="99.786212%" id="linearGradient-4">
            <stop stop-color="#FBAF4D" offset="0%"></stop>
            <stop stop-color="#F47635" offset="100%"></stop>
        </linearGradient>
        <linearGradient x1="50%" y1="0%" x2="50%" y2="100%" id="linearGradient-5">
            <stop stop-color="#FFEAB9" offset="0%"></stop>
            <stop stop-color="#FFD183" offset="100%"></stop>
        </linearGradient>
    </defs>
    <g id="Concept" stroke="none" stroke-width="1" fill="none" fill-rule="evenodd">
        <g id="RecipeApp---Login-Page" transform="translate(-116.506345, -278.835698)">
            <g id="SVG-Icon" transform="translate(116.506345, 278.835698)">
                <mask id="mask-3" fill="white">
                    <use xlink:href="#path-2"></use>
                </mask>
                <use id="Mask-2" fill="url(#linearGradient-1)" xlink:href="#path-2"></use>
                <g id="Group-6" mask="url(#mask-3)">
                    <g transform="translate(6.506475, 14.639597) rotate(26.000000) translate(-6.506475, -14.639597) translate(-53.303781, -0.724505)">
                        <path d="M116.692673,18.1463353 L103.8978,18.1463353 C102.502083,18.1463353 101.371535,16.7726288 101.371535,15.0767186 C101.371535,13.3827378 102.502083,12.0090313 103.8978,12.0090313 L116.692673,12.0090313 C118.087597,12.0090313 119.218144,13.3827378 119.218144,15.0767186 C119.218144,16.7726288 118.087597,18.1463353 116.692673,18.1463353" id="Fill-1" fill="url(#linearGradient-4)"></path>
                        <path d="M99.2896561,30.1548843 L5.93163395,30.1548843 C2.65557538,30.1548843 -0.000192936311,27.4991159 -0.000192936311,24.2240221 L-0.000192936311,5.93173041 C-0.000192936311,2.65567185 2.65557538,-9.64681555e-05 5.93163395,-9.64681555e-05 L99.2896561,-9.64681555e-05 C102.565715,-9.64681555e-05 105.220518,2.65567185 105.220518,5.93173041 L105.220518,24.2240221 C105.220518,27.4991159 102.565715,30.1548843 99.2896561,30.1548843" id="Fill-3" fill="url(#linearGradient-5)"></path>
                    </g>
                </g>
                <g id="Group-6" mask="url(#mask-3)">
                    <g transform="translate(129.506475, 13.639597) rotate(126.000000) translate(-129.506475, -13.639597) translate(69.696219, -1.724505)">
                        <path d="M116.692673,18.1463353 L103.8978,18.1463353 C102.502083,18.1463353 101.371535,16.7726288 101.371535,15.0767186 C101.371535,13.3827378 102.502083,12.0090313 103.8978,12.0090313 L116.692673,12.0090313 C118.087597,12.0090313 119.218144,13.3827378 119.218144,15.0767186 C119.218144,16.7726288 118.087597,18.1463353 116.692673,18.1463353" id="Fill-1" fill="url(#linearGradient-4)"></path>
                        <path d="M99.2896561,30.1548843 L5.93163395,30.1548843 C2.65557538,30.1548843 -0.000192936311,27.4991159 -0.000192936311,24.2240221 L-0.000192936311,5.93173041 C-0.000192936311,2.65567185 2.65557538,-9.64681555e-05 5.93163395,-9.64681555e-05 L99.2896561,-9.64681555e-05 C102.565715,-9.64681555e-05 105.220518,2.65567185 105.220518,5.93173041 L105.220518,24.2240221 C105.220518,27.4991159 102.565715,30.1548843 99.2896561,30.1548843" id="Fill-3" fill="url(#linearGradient-5)"></path>
                    </g>
                </g>
                <g id="Group-6" mask="url(#mask-3)">
                    <g transform="translate(119.506475, 125.639597) rotate(240.000000) translate(-119.506475, -125.639597) translate(59.696219, 110.275495)">
                        <path d="M116.692673,18.1463353 L103.8978,18.1463353 C102.502083,18.1463353 101.371535,16.7726288 101.371535,15.0767186 C101.371535,13.3827378 102.502083,12.0090313 103.8978,12.0090313 L116.692673,12.0090313 C118.087597,12.0090313 119.218144,13.3827378 119.218144,15.0767186 C119.218144,16.7726288 118.087597,18.1463353 116.692673,18.1463353" id="Fill-1" fill="url(#linearGradient-4)"></path>
                        <path d="M99.2896561,30.1548843 L5.93163395,30.1548843 C2.65557538,30.1548843 -0.000192936311,27.4991159 -0.000192936311,24.2240221 L-0.000192936311,5.93173041 C-0.000192936311,2.65567185 2.65557538,-9.64681555e-05 5.93163395,-9.64681555e-05 L99.2896561,-9.64681555e-05 C102.565715,-9.64681555e-05 105.220518,2.65567185 105.220518,5.93173041 L105.220518,24.2240221 C105.220518,27.4991159 102.565715,30.1548843 99.2896561,30.1548843" id="Fill-3" fill="url(#linearGradient-5)"></path>
                    </g>
                </g>
                <g id="Group-6" mask="url(#mask-3)">
                    <g transform="translate(14.506475, 93.639597) rotate(-21.000000) translate(-14.506475, -93.639597) translate(-45.303781, 78.275495)">
                        <path d="M116.692673,18.1463353 L103.8978,18.1463353 C102.502083,18.1463353 101.371535,16.7726288 101.371535,15.0767186 C101.371535,13.3827378 102.502083,12.0090313 103.8978,12.0090313 L116.692673,12.0090313 C118.087597,12.0090313 119.218144,13.3827378 119.218144,15.0767186 C119.218144,16.7726288 118.087597,18.1463353 116.692673,18.1463353" id="Fill-1" fill="url(#linearGradient-4)"></path>
                        <path d="M99.2896561,30.1548843 L5.93163395,30.1548843 C2.65557538,30.1548843 -0.000192936311,27.4991159 -0.000192936311,24.2240221 L-0.000192936311,5.93173041 C-0.000192936311,2.65567185 2.65557538,-9.64681555e-05 5.93163395,-9.64681555e-05 L99.2896561,-9.64681555e-05 C102.565715,-9.64681555e-05 105.220518,2.65567185 105.220518,5.93173041 L105.220518,24.2240221 C105.220518,27.4991159 102.565715,30.1548843 99.2896561,30.1548843" id="Fill-3" fill="url(#linearGradient-5)"></path>
                    </g>
                </g>
            </g>
        </g>
    </g>
</svg>